<?xml version="1.0" encoding="UTF-8"?>
<!DOCTYPE svg PUBLIC "-//W3C//DTD SVG 1.1//EN" "http://www.w3.org/Graphics/SVG/1.1/DTD/svg11.dtd">
<!-- Creator: CorelDRAW 2019 (64-Bit) -->
<svg xmlns="http://www.w3.org/2000/svg" xml:space="preserve" width="210mm" height="297mm" version="1.1" style="shape-rendering:geometricPrecision; text-rendering:geometricPrecision; image-rendering:optimizeQuality; fill-rule:evenodd; clip-rule:evenodd"
viewBox="0 0 21000 29700"
 xmlns:xlink="http://www.w3.org/1999/xlink"
 xmlns:dc="http://purl.org/dc/elements/1.1/"
 xmlns:cc="http://creativecommons.org/ns#"
 xmlns:rdf="http://www.w3.org/1999/02/22-rdf-syntax-ns#"
 xmlns:svg="http://www.w3.org/2000/svg"
 xmlns:sodipodi="http://sodipodi.sourceforge.net/DTD/sodipodi-0.dtd"
 xmlns:inkscape="http://www.inkscape.org/namespaces/inkscape"
 inkscape:version="0.91+devel+osxmenu r12922"
 sodipodi:docname="Offline logo.svg">
 <defs>
  <style type="text/css">
   <![CDATA[
    .fil1 {fill:#3E4095}
    .fil0 {fill:#3E4095;fill-opacity:0.000000}
   ]]>
  </style>
 </defs>
 <g id="Capa_x0020_1">
  <metadata id="CorelCorpID_0Corel-Layer"/>
  <g id="_2348725315712">
   <sodipodi:namedview pagecolor="#ffffff" bordercolor="#666666" borderopacity="1" objecttolerance="10" gridtolerance="10" guidetolerance="10" inkscape:pageopacity="0" inkscape:pageshadow="2" inkscape:window-width="697" inkscape:window-height="480" id="namedview4151" showgrid="false" inkscape:zoom="4.1907565" inkscape:cx="28.00411" inkscape:cy="28.157207" inkscape:window-x="0" inkscape:window-y="23" inkscape:window-maximized="0" inkscape:current-layer="svg18605"/>
   <path id="path3388-6" class="fil0" d="M20043.7 10628.69c0,-5395 -4342.5,-9768.41 -9699.13,-9768.41 -5356.63,0 -9699.13,4373.41 -9699.13,9768.41 0,5395 4342.5,9768.4 9699.13,9768.4 5356.63,0 9699.13,-4373.4 9699.13,-9768.4z"/>
   <g id="g6">
    <path id="path8" class="fil1" d="M17515.07 3776.93l-2244.72 2618.73c-4759.46,-2230.7 -10412.71,-1091.12 -14257.71,3394.78l1330.12 1551.83c3096.85,-3588.72 7544.64,-4679.85 11451.98,-3224.93l-1537.95 1794.36c-2992.87,-727.46 -6235.21,266.76 -8562.95,3006.75l1330.12 1551.83c1517.25,-1770.13 3533.32,-2643.08 5549.26,-2570.27l-2286.23 2667.31c-706.64,315.21 -1350.94,800.14 -1932.91,1479.15l332.5 388.02 -2410.91 2764.23 727.46 848.72 13239.4 -15421.78 -727.46 -848.73z"/>
    <path id="path10" class="fil1" d="M9014.45 19150.13l1330.12 1551.83 1330.12 -1551.83c-727.46,-872.95 -1932.91,-872.95 -2660.37,0l0.13 0z"/>
    <path id="path12" class="fil1" d="M9637.93 16385.91c1184.63,-266.76 2473.24,145.49 3387.84,1212.39l1330.12 -1551.83c-810.62,-945.76 -1828.94,-1551.96 -2868.2,-1794.36l-1849.76 2133.8z"/>
    <path id="path14" class="fil1" d="M13004.94 12457.75c976.81,436.48 1891.4,1091.13 2681.2,2012.53l1330.12 -1551.83c-768.97,-897.18 -1641.93,-1624.64 -2577.22,-2133.79l-1434.1 1673.09z"/>
    <path id="path16" class="fil1" d="M17224.09 7535.37l-1371.77 1600.42c893.78,581.97 1745.91,1309.43 2514.88,2206.61l1330.12 -1551.96c-768.97,-872.96 -1600.28,-1624.64 -2473.23,-2255.07z"/>
   </g>
  </g>
 </g>
</svg>
